<?xml version="1.0" encoding="UTF-8"?>
<svg width="200" height="200" viewBox="0 0 200 200" fill="none" xmlns="http://www.w3.org/2000/svg">
  <!-- Background Circle -->
  <circle cx="100" cy="100" r="80" fill="#E6F7FF"/>
  
  <!-- Sandbox Container -->
  <rect x="50" y="70" width="100" height="80" rx="5" fill="#00B4D8" fill-opacity="0.2" stroke="#00B4D8" stroke-width="2"/>
  <rect x="60" y="80" width="80" height="60" rx="3" fill="white"/>
  
  <!-- Code Lines -->
  <rect x="70" y="95" width="40" height="4" rx="2" fill="#00B4D8"/>
  <rect x="70" y="105" width="60" height="4" rx="2" fill="#00B4D8"/>
  <rect x="70" y="115" width="50" height="4" rx="2" fill="#00B4D8"/>
  
  <!-- Play Button -->
  <circle cx="150" cy="110" r="15" fill="#00B4D8"/>
  <path d="M145 105V115L155 110L145 105Z" fill="white"/>
  
  <!-- Sand Dots -->
  <circle cx="70" cy="140" r="3" fill="#00B4D8" fill-opacity="0.5"/>
  <circle cx="80" cy="145" r="2" fill="#00B4D8" fill-opacity="0.5"/>
  <circle cx="90" cy="142" r="2.5" fill="#00B4D8" fill-opacity="0.5"/>
  <circle cx="100" cy="138" r="2" fill="#00B4D8" fill-opacity="0.5"/>
  <circle cx="110" cy="143" r="3" fill="#00B4D8" fill-opacity="0.5"/>
  <circle cx="120" cy="140" r="2" fill="#00B4D8" fill-opacity="0.5"/>
  
  <!-- Checkmark -->
  <path d="M70 165L85 180L130 135" stroke="#00B4D8" stroke-width="5" stroke-linecap="round" stroke-linejoin="round"/>
</svg>
