<svg xmlns="http://www.w3.org/2000/svg" viewBox="0 0 100 100" width="200" height="200">
  <rect width="100" height="100" fill="#f0f0f0" />
  <path d="M82.7,57.4l-2.6-0.9c-0.6-1.6-1.3-3.2-2.2-4.6l1.6-2.3c0.5-0.7,0.5-1.6,0-2.3l-5.8-5.8c-0.7-0.7-1.6-0.7-2.3,0l-2.3,1.6 c-1.5-0.9-3-1.6-4.6-2.2l-0.9-2.6c-0.2-0.9-1-1.5-1.9-1.5h-8.2c-0.9,0-1.7,0.6-1.9,1.5l-0.9,2.6c-1.6,0.6-3.2,1.3-4.6,2.2l-2.3-1.6 c-0.7-0.5-1.6-0.5-2.3,0l-5.8,5.8c-0.7,0.7-0.7,1.6,0,2.3l1.6,2.3c-0.9,1.5-1.6,3-2.2,4.6l-2.6,0.9c-0.9,0.2-1.5,1-1.5,1.9v8.2 c0,0.9,0.6,1.7,1.5,1.9l2.6,0.9c0.6,1.6,1.3,3.2,2.2,4.6l-1.6,2.3c-0.5,0.7-0.5,1.6,0,2.3l5.8,5.8c0.7,0.7,1.6,0.7,2.3,0l2.3-1.6 c1.5,0.9,3,1.6,4.6,2.2l0.9,2.6c0.2,0.9,1,1.5,1.9,1.5h8.2c0.9,0,1.7-0.6,1.9-1.5l0.9-2.6c1.6-0.6,3.2-1.3,4.6-2.2l2.3,1.6 c0.7,0.5,1.6,0.5,2.3,0l5.8-5.8c0.7-0.7,0.7,1.6,0-2.3l-1.6-2.3c0.9-1.5,1.6-3,2.2-4.6l2.6-0.9c0.9-0.2,1.5-1,1.5-1.9v-8.2 C84.2,58.4,83.5,57.6,82.7,57.4z M50,62.5c-6.9,0-12.5-5.6-12.5-12.5s5.6-12.5,12.5-12.5s12.5,5.6,12.5,12.5S56.9,62.5,50,62.5z" fill="#6c757d"/>
  <text x="50" y="90" font-family="Arial, sans-serif" font-size="10" fill="#333" text-anchor="middle">Feature D Placeholder</text>
</svg>
