<?xml version="1.0" encoding="UTF-8"?>
<svg width="200" height="200" viewBox="0 0 200 200" fill="none" xmlns="http://www.w3.org/2000/svg">
  <!-- Background Circle -->
  <circle cx="100" cy="100" r="80" fill="#F0E6FF"/>
  
  <!-- Shield Badge -->
  <path d="M100 50C80 50 70 60 70 70V90C70 110 90 120 100 130C110 120 130 110 130 90V70C130 60 120 50 100 50Z" fill="#9F7AEA" fill-opacity="0.2" stroke="#9F7AEA" stroke-width="2"/>
  <path d="M100 60C85 60 80 67 80 75V90C80 105 95 113 100 120C105 113 120 105 120 90V75C120 67 115 60 100 60Z" fill="#9F7AEA"/>
  
  <!-- Checkmark -->
  <path d="M90 95L105 110L130 85" stroke="white" stroke-width="5" stroke-linecap="round" stroke-linejoin="round"/>
  
  <!-- Stars -->
  <path d="M60 80L65 85L70 80L65 75L60 80Z" fill="#9F7AEA"/>
  <path d="M140 100L145 105L150 100L145 95L140 100Z" fill="#9F7AEA"/>
  <path d="M70 140L75 145L80 140L75 135L70 140Z" fill="#9F7AEA"/>
  
  <!-- Ribbon -->
  <path d="M80 140L90 150L100 140L110 150L120 140L110 160H90L80 140Z" fill="#9F7AEA" fill-opacity="0.8"/>
  
  <!-- Quality Text -->
  <text x="100" y="180" font-family="Arial" font-size="10" text-anchor="middle" fill="#9F7AEA" font-weight="bold">QUALITY</text>
</svg>
