<?xml version="1.0" encoding="UTF-8"?>
<svg width="600" height="400" viewBox="0 0 600 400" fill="none" xmlns="http://www.w3.org/2000/svg">
  <!-- Background -->
  <rect width="600" height="400" rx="10" fill="#F0F2FF"/>
  
  <!-- Robot Illustration -->
  <circle cx="300" cy="180" r="80" fill="#6C63FF" fill-opacity="0.1"/>
  <circle cx="300" cy="150" r="50" fill="#6C63FF"/>
  <circle cx="290" cy="140" r="5" fill="white"/>
  <circle cx="310" cy="140" r="5" fill="white"/>
  <path d="M285 165C285 160.029 289.029 156 294 156H306C310.971 156 315 160.029 315 165V165C315 169.971 310.971 174 306 174H294C289.029 174 285 169.971 285 165V165Z" fill="white"/>
  
  <!-- Connection Dots -->
  <circle cx="200" cy="100" r="6" fill="#6C63FF" fill-opacity="0.3"/>
  <circle cx="400" cy="90" r="6" fill="#6C63FF" fill-opacity="0.3"/>
  <circle cx="180" cy="200" r="6" fill="#6C63FF" fill-opacity="0.3"/>
  <circle cx="420" cy="220" r="6" fill="#6C63FF" fill-opacity="0.3"/>
  
  <!-- Connection Lines -->
  <path d="M300 100C300 100 250 80 220 110C190 140 200 180 200 180" stroke="#6C63FF" stroke-width="2" stroke-linecap="round" stroke-dasharray="4 4"/>
  <path d="M300 100C300 100 350 90 380 120C410 150 400 190 400 190" stroke="#6C63FF" stroke-width="2" stroke-linecap="round" stroke-dasharray="4 4"/>
  
  <!-- Floating Elements -->
  <circle cx="250" cy="250" r="30" fill="#00B4D8" fill-opacity="0.1"/>
  <circle cx="350" cy="260" r="20" fill="#6C63FF" fill-opacity="0.1"/>
  <circle cx="280" cy="300" r="25" fill="#00B4D8" fill-opacity="0.1"/>
  
  <!-- Text -->
  <text x="300" y="350" font-family="Arial" font-size="14" text-anchor="middle" fill="#6C63FF" font-weight="bold">AI Agents Marketplace</text>
</svg>
