<svg xmlns="http://www.w3.org/2000/svg" viewBox="0 0 100 100" width="100" height="100">
  <rect width="100" height="100" fill="#f0f0f0" rx="10" ry="10"/>
  <path fill="#4F52B2" d="M60.4,23.8H40.7c-2.9,0-5.2,2.3-5.2,5.2v7.8c0,2.9,2.3,5.2,5.2,5.2h11.9V63c0,2.9,2.3,5.2,5.2,5.2s5.2-2.3,5.2-5.2 V42h7.8c2.9,0,5.2-2.3,5.2-5.2v-7.8C76.2,26.1,73.9,23.8,71,23.8H60.4z"/>
  <path fill="#4F52B2" d="M30.1,47.8c-2.9,0-5.2,2.3-5.2,5.2v14.7c0,2.9,2.3,5.2,5.2,5.2h14.7c2.9,0,5.2-2.3,5.2-5.2V53 c0-2.9-2.3-5.2-5.2-5.2H30.1z"/>
  <text x="50" y="90" font-family="Arial, sans-serif" font-size="10" fill="#333" text-anchor="middle">Teams Placeholder</text>
</svg>
